<?xml version="1.0" encoding="UTF-8"?>
<svg id="Layer_1" data-name="Layer 1" xmlns="http://www.w3.org/2000/svg" viewBox="0 0 203.5 203.5">
  <defs>
    <style>
      .cls-1 {
        fill: #f8f8f4;
      }

      .cls-2 {
        fill: #6e3e0b;
      }
    </style>
  </defs>
  <rect class="cls-1" width="203.5" height="203.5" rx="40" ry="40"/>
  <g>
    <path class="cls-2" d="M25.92,68.14h18.74l16.89,43.72,2.68,10.69,2.94-10.86,17.99-43.51,17.8-.04-31.79,73.34h-13.74L25.92,68.14Z"/>
    <path class="cls-2" d="M174.62,123.12c-.26,7.42-6.53,15.98-19.2,17.71-4.36,.59-9.7,.68-15.89,.65v.02l-20.28-.04-7.87-.02V68.12s31.57,0,31.57,0c13.95,0,25.05,4.95,25.9,18.07,.8,12.48-9.82,15.92-9.82,15.92,0,0,16.19,3.27,15.59,21Zm-46.76-25.76h7.52c1.86,0,6.21,0,6.21,0,7.14,0,11.37-3.08,11.37-8.39s-3.25-9.85-9.39-9.81l-15.7-.05v18.25Zm28.72,21.97c0-4.06-2.36-9.5-13.08-9.5l-15.63,.06v19.56h9.87s.44,0,.85,0c.2,0,.4,0,.52,0h1.31c13.56,.3,16.16-4.37,16.16-10.12Z"/>
  </g>
</svg>